<?xml version="1.0" standalone="no"?>
<!DOCTYPE svg PUBLIC "-//W3C//DTD SVG 20010904//EN"
 "http://www.w3.org/TR/2001/REC-SVG-20010904/DTD/svg10.dtd">
<svg version="1.0" xmlns="http://www.w3.org/2000/svg"
 width="1024.000000pt" height="1024.000000pt" viewBox="0 0 1024.000000 1024.000000"
 preserveAspectRatio="xMidYMid meet">

<g transform="translate(0.000000,1024.000000) scale(0.100000,-0.100000)"
fill="#000000" stroke="none">
<path d="M4090 9051 c-179 -59 -268 -234 -211 -419 11 -39 21 -73 21 -76 0 -3
-23 -6 -50 -6 -68 0 -118 -22 -126 -55 -7 -28 3 -262 13 -303 4 -18 10 -21 27
-16 11 4 23 8 25 10 2 2 -1 68 -7 146 -14 180 -10 188 78 188 l59 0 40 -72
c49 -91 200 -308 213 -308 3 0 26 29 53 65 26 36 50 63 53 61 3 -3 22 -182 43
-398 40 -426 40 -431 -14 -443 -68 -15 -403 -43 -419 -34 -31 16 -36 39 -49
226 -7 100 -16 188 -20 195 -6 10 -13 8 -30 -8 -21 -21 -21 -24 -9 -190 14
-201 21 -229 63 -250 30 -16 104 -13 302 11 17 2 66 7 109 11 66 5 84 11 104
31 24 24 25 27 19 136 -4 61 -11 147 -17 191 -5 45 -19 176 -30 291 -11 116
-22 225 -25 243 -3 25 4 46 29 85 51 80 113 207 131 271 62 214 -69 413 -279
422 -39 2 -82 0 -96 -5z m168 -161 c86 -53 103 -176 34 -254 -49 -56 -142 -67
-210 -25 -102 61 -96 230 10 282 46 23 125 22 166 -3z"/>
<path d="M5545 8960 c-4 -6 12 -10 39 -10 25 0 46 5 46 10 0 6 -18 10 -39 10
-22 0 -43 -4 -46 -10z"/>
<path d="M5730 8960 c0 -5 20 -10 45 -10 25 0 45 5 45 10 0 6 -20 10 -45 10
-25 0 -45 -4 -45 -10z"/>
<path d="M5920 8950 c0 -9 80 -23 88 -15 9 8 -1 12 -45 18 -24 3 -43 2 -43 -3z"/>
<path d="M5370 8940 c-12 -7 -8 -10 15 -10 17 0 37 5 45 10 12 7 8 10 -15 10
-16 0 -37 -5 -45 -10z"/>
<path d="M6110 8920 c0 -9 70 -24 78 -16 8 9 0 13 -40 19 -21 3 -38 2 -38 -3z"/>
<path d="M5203 8909 c-18 -5 -33 -12 -33 -15 0 -9 73 6 85 17 11 11 -9 11 -52
-2z"/>
<path d="M6290 8882 c0 -12 79 -32 85 -22 3 4 -7 11 -23 14 -15 4 -35 9 -44
12 -10 3 -18 1 -18 -4z"/>
<path d="M5033 8856 c-36 -12 -53 -26 -32 -25 26 1 83 25 73 31 -5 3 -23 0
-41 -6z"/>
<path d="M6470 8830 c0 -4 14 -13 31 -19 39 -13 57 -14 44 -2 -16 13 -75 31
-75 21z"/>
<path d="M4857 8779 c-22 -11 -37 -23 -34 -25 6 -7 77 28 77 38 0 10 2 11 -43
-13z"/>
<path d="M6650 8764 c0 -5 63 -34 75 -34 18 0 0 18 -28 28 -37 13 -47 15 -47
6z"/>
<path d="M4705 8693 c-11 -8 -27 -18 -35 -23 -8 -5 -12 -11 -8 -15 3 -4 23 4
43 18 20 14 33 27 28 30 -4 3 -17 -1 -28 -10z"/>
<path d="M6820 8691 c0 -5 9 -11 20 -14 24 -6 27 8 4 17 -21 8 -24 8 -24 -3z"/>
<path d="M5334 8599 c-55 -7 -139 -45 -185 -83 l-27 -23 74 -6 c49 -4 85 -12
107 -26 36 -23 104 -100 185 -213 49 -69 59 -78 87 -78 17 0 41 -7 54 -16 20
-14 22 -23 18 -57 -3 -22 -16 -54 -28 -71 -25 -34 -33 -126 -13 -146 26 -26
74 30 74 87 0 20 11 39 34 61 62 58 71 183 24 311 -68 182 -224 283 -404 260z"/>
<path d="M4555 8579 c-12 -19 5 -23 22 -6 16 16 16 17 1 17 -9 0 -20 -5 -23
-11z"/>
<path d="M5165 8295 c-5 -2 -30 -6 -55 -10 -56 -7 -89 -30 -72 -47 7 -7 12
-20 12 -30 0 -41 136 -27 217 24 l33 19 70 -38 70 -38 0 -147 c0 -166 -8 -204
-43 -193 -82 26 -299 8 -320 -26 -16 -25 33 -120 79 -155 34 -26 45 -29 113
-29 63 1 87 6 141 32 75 35 160 101 160 124 0 8 -16 31 -36 50 l-36 34 6 142
7 142 -58 46 c-104 83 -150 105 -218 104 -33 0 -64 -2 -70 -4z m155 -511 c0
-17 -24 -46 -51 -60 -28 -14 -33 -14 -54 0 -32 21 -49 53 -32 59 17 7 137 8
137 1z"/>
<path d="M5081 8154 c-33 -24 -14 -34 52 -27 64 7 72 16 26 32 -42 15 -50 14
-78 -5z"/>
<path d="M5286 8159 c-15 -9 -16 -13 -5 -20 18 -11 119 -12 119 -1 0 30 -75
43 -114 21z"/>
<path d="M3770 8098 l-25 -21 25 8 c31 9 33 11 29 24 -2 5 -15 0 -29 -11z"/>
<path d="M5556 8098 c-9 -12 -16 -32 -16 -43 1 -18 1 -19 11 -2 5 9 17 17 26
17 13 0 14 3 6 11 -6 6 -9 18 -6 25 8 21 -4 17 -21 -8z"/>
<path d="M5302 8078 c-16 -16 -15 -33 4 -48 12 -11 18 -10 32 4 16 16 16 18
-1 27 -9 6 -15 14 -12 20 9 13 -9 11 -23 -3z"/>
<path d="M5084 8065 c-9 -23 3 -45 25 -45 24 0 35 26 15 34 -9 3 -12 10 -9 16
3 5 -1 10 -10 10 -8 0 -18 -7 -21 -15z"/>
<path d="M3780 8010 l-25 -21 28 12 c15 7 27 16 27 21 0 11 -1 10 -30 -12z"/>
<path d="M5186 7983 c-9 -26 -16 -48 -16 -50 0 -2 17 -3 38 -2 33 0 35 1 14
10 -21 8 -23 13 -17 49 9 54 0 51 -19 -7z"/>
<path d="M3779 7903 c-13 -14 -17 -23 -9 -19 8 3 23 9 33 12 18 7 22 20 8 28
-4 3 -19 -6 -32 -21z"/>
<path d="M5705 7584 c-70 -39 -170 -64 -254 -64 l-61 0 0 -54 c0 -42 4 -55 17
-60 20 -8 397 4 433 14 31 8 38 55 15 99 -17 35 -74 102 -84 100 -3 -1 -33
-16 -66 -35z"/>
<path d="M5386 7383 c-9 -23 -23 -187 -31 -363 l-7 -145 -97 -190 -97 -189
-149 -86 c-83 -48 -262 -151 -400 -230 -137 -78 -254 -147 -260 -153 -5 -5
184 88 420 208 l431 218 149 340 c168 382 166 377 160 377 -3 0 -30 -48 -60
-107 l-55 -108 6 223 c3 122 4 222 1 222 -3 0 -8 -8 -11 -17z"/>
<path d="M5920 7084 c0 -5 -20 -141 -44 -303 l-44 -294 -55 -56 c-74 -77 -81
-105 -10 -44 l56 48 -6 -53 c-5 -45 -15 -65 -77 -144 -39 -50 -129 -152 -201
-226 -101 -103 -142 -139 -178 -153 -55 -22 -27 -24 47 -5 40 11 54 12 57 3 2
-7 13 -41 24 -76 12 -36 19 -66 17 -68 -2 -2 -68 -11 -147 -18 -490 -49 -881
-148 -1114 -280 -99 -57 -128 -84 -154 -146 -87 -201 -149 -843 -167 -1715
l-7 -321 24 -6 c13 -3 101 -17 194 -32 94 -14 176 -27 183 -28 9 -1 106 256
294 773 154 426 282 777 284 779 2 2 27 6 55 9 47 4 51 3 46 -14 -15 -48 -27
-147 -29 -231 -3 -83 -1 -93 20 -116 13 -13 54 -39 93 -57 38 -17 69 -34 69
-37 0 -3 -23 -49 -50 -102 l-50 -96 -90 -660 c-50 -363 -104 -761 -121 -885
-83 -615 -77 -560 -59 -570 37 -20 318 -102 354 -103 l40 -2 31 75 c56 133
239 662 396 1145 l153 470 200 268 201 268 45 -4 c46 -5 632 -73 708 -83 39
-5 42 -7 36 -31 -4 -16 -2 -28 7 -34 26 -16 99 -9 161 16 l61 25 161 -15 c88
-8 210 -17 269 -21 l108 -7 34 33 c39 38 74 120 101 233 16 68 21 78 43 84 14
4 235 -18 490 -47 l464 -53 19 23 c16 20 17 26 5 43 -17 26 -78 40 -272 61
-574 64 -709 84 -775 112 -64 29 -67 29 -215 24 -340 -11 -462 -1 -864 71
-177 32 -205 45 -170 80 37 37 67 202 93 519 33 390 33 373 -8 497 l-37 110
36 36 c32 32 36 41 30 69 -10 47 -68 202 -137 363 -72 168 -321 679 -335 688
-12 8 -83 -74 -83 -95 0 -8 4 -18 9 -23 14 -16 251 -473 251 -485 0 -4 -64
-75 -142 -157 -79 -82 -172 -187 -207 -234 l-64 -84 79 75 c121 116 141 132
148 122 7 -12 -217 -303 -247 -319 -26 -15 -243 -18 -280 -4 -28 11 -63 55
-72 93 -9 35 20 63 71 71 85 14 215 137 275 262 27 57 29 67 29 190 0 72 -3
154 -6 182 l-7 53 -35 -45 c-19 -25 -39 -42 -45 -38 -6 4 -8 0 -4 -10 3 -9 0
-18 -9 -21 -10 -4 -14 3 -14 30 0 29 10 45 55 93 34 35 55 67 55 80 0 20 -7
16 -46 -28 -26 -29 -48 -50 -50 -48 -2 2 10 127 26 277 17 149 29 275 26 278
-3 3 -6 1 -6 -4z m424 -984 c-52 -68 -81 -97 -88 -90 -6 6 -2 18 14 35 13 14
21 27 18 31 -3 3 -16 -9 -28 -25 -12 -17 -26 -31 -33 -31 -6 0 6 18 28 39 21
22 41 39 45 38 3 -1 31 27 60 62 83 100 71 54 -16 -59z m-112 -143 c-5 -7 -48
-61 -94 -122 -84 -107 -144 -173 -151 -164 -8 8 234 309 244 303 6 -3 6 -10 1
-17z"/>
<path d="M4133 6690 c-14 -52 -21 -64 -45 -72 -16 -6 -30 -20 -33 -31 -28
-116 -91 -459 -85 -462 4 -2 24 73 45 168 69 322 65 307 86 307 16 0 19 -8 19
-42 0 -24 5 -50 10 -58 7 -10 10 11 10 70 0 47 5 105 11 129 15 68 2 61 -18
-9z"/>
<path d="M3897 6617 c-4 -10 -7 -40 -7 -66 0 -40 -4 -49 -27 -63 l-28 -16 3
-276 c2 -170 6 -276 12 -276 6 0 10 104 10 274 0 237 2 275 15 280 14 5 35
-27 35 -53 0 -4 7 -16 15 -27 14 -18 14 -17 4 11 -6 17 -14 75 -17 130 -4 60
-10 93 -15 82z"/>
<path d="M3404 6259 c-10 -16 -26 -338 -22 -444 2 -64 6 -80 19 -83 17 -3 20
44 32 472 2 57 -12 83 -29 55z"/>
<path d="M5619 6253 c-13 -16 -12 -17 4 -4 9 7 17 15 17 17 0 8 -8 3 -21 -13z"/>
<path d="M4043 6000 c4 -14 7 -42 7 -63 0 -37 0 -38 36 -35 l37 3 24 -94 c13
-52 29 -101 35 -108 11 -14 78 -18 78 -5 0 4 -18 53 -40 110 -22 56 -40 112
-40 123 0 13 -11 24 -32 33 -57 23 -63 25 -87 43 -24 18 -25 18 -18 -7z"/>
<path d="M4105 5683 c-39 -6 -55 -20 -55 -47 0 -31 19 -46 57 -46 23 0 37 7
48 24 17 26 11 77 -9 75 -6 -1 -24 -4 -41 -6z"/>
<path d="M3724 5505 c-5 -12 10 -33 47 -71 49 -49 55 -53 66 -37 11 14 8 22
-19 51 -18 18 -45 43 -61 54 -24 18 -28 18 -33 3z"/>
<path d="M3520 4925 c0 -14 80 -35 131 -35 72 0 76 15 9 29 -52 11 -140 15
-140 6z"/>
<path d="M2700 3825 l-42 -65 72 -71 c55 -53 75 -67 82 -57 35 54 78 127 78
135 0 15 -126 123 -143 123 -3 0 -24 -29 -47 -65z"/>
<path d="M1640 3461 c-189 -115 -313 -273 -386 -491 -26 -79 -28 -96 -28 -250
-1 -161 0 -167 33 -262 117 -339 405 -564 760 -594 287 -24 597 125 761 366
73 107 141 276 140 345 -1 12 -21 36 -52 60 -28 22 -98 93 -156 157 -58 64
-117 126 -133 137 l-27 20 20 -57 c11 -32 23 -95 25 -142 9 -150 -36 -276
-140 -386 -103 -111 -227 -164 -382 -164 -153 1 -262 45 -366 149 -207 206
-212 519 -12 731 117 125 295 188 451 162 29 -5 50 -6 45 -2 -52 50 -400 241
-463 255 -18 4 -43 -6 -90 -34z"/>
<path d="M3902 3053 c-39 -47 -92 -80 -106 -66 -3 3 -11 1 -18 -5 -7 -5 -37
-9 -66 -8 -30 0 -56 -2 -59 -7 -6 -10 42 -54 109 -100 65 -45 212 -110 288
-126 30 -7 62 -15 70 -17 10 -2 16 3 17 14 0 9 10 58 22 107 11 50 21 104 21
120 l0 30 -68 1 c-94 1 -160 32 -164 76 l-3 32 -43 -51z m130 -140 c39 -35 11
-103 -43 -103 -36 0 -59 24 -59 60 0 54 61 80 102 43z"/>
<path d="M2425 3018 c-24 -120 -95 -306 -139 -363 -14 -18 -14 -17 -5 20 24
87 -30 197 -115 236 -56 25 -129 24 -185 -3 -52 -25 -55 -21 72 -94 49 -29 81
-54 87 -70 20 -51 -29 -104 -82 -90 -13 3 -54 44 -93 90 l-70 85 -13 -25 c-23
-43 -18 -128 10 -181 36 -70 99 -107 193 -111 57 -3 80 0 111 16 47 24 110 90
147 153 60 103 134 333 115 357 -17 20 -26 14 -33 -20z"/>
<path d="M1890 2865 c0 -8 7 -15 15 -15 8 0 15 7 15 15 0 8 -7 15 -15 15 -8 0
-15 -7 -15 -15z"/>
<path d="M2051 2753 c-12 -8 -21 -23 -21 -33 0 -43 73 -59 85 -19 15 47 -25
80 -64 52z"/>
<path d="M6050 2088 c0 -224 83 -426 241 -585 161 -162 359 -245 589 -244 242
0 437 85 609 267 64 68 91 106 131 187 61 125 79 192 87 321 l6 99 -63 -6
c-35 -4 -113 -7 -175 -7 l-112 0 -6 -72 c-7 -94 -38 -174 -95 -251 -190 -249
-574 -249 -764 0 -63 84 -89 157 -96 271 -6 107 6 97 -137 106 -49 4 -118 9
-152 12 l-63 7 0 -105z"/>
<path d="M6460 2151 c0 -15 184 -185 244 -225 88 -58 149 -79 223 -74 83 5
137 42 176 117 26 53 36 122 19 147 -4 8 -78 14 -214 19 l-207 7 -7 -26 c-7
-29 -1 -99 11 -130 14 -33 -29 -2 -123 90 -77 74 -122 102 -122 75z"/>
<path d="M4761 1716 c-43 -58 -95 -91 -125 -80 -9 4 -16 1 -16 -6 0 -9 -11
-11 -35 -7 -19 3 -35 2 -35 -4 0 -13 -44 -11 -58 3 -9 9 -12 9 -12 0 0 -8 -26
-12 -89 -12 -104 0 -147 -13 -165 -49 -18 -33 -31 -117 -19 -124 11 -7 297
-70 558 -123 l220 -44 18 21 c9 12 17 33 16 48 -1 14 8 64 19 111 12 47 24
108 28 135 l6 50 -64 1 c-44 1 -83 10 -130 28 -66 27 -67 28 -70 69 l-3 41
-44 -58z m139 -166 c41 -41 12 -120 -45 -120 -30 0 -75 41 -75 68 0 59 79 93
120 52z"/>
</g>
</svg>
